<mxfile host="app.diagrams.net" modified="2023-12-31T10:33:00.806Z" agent="Mozilla/5.0 (Windows NT 10.0; Win64; x64) AppleWebKit/537.36 (KHTML, like Gecko) Chrome/120.0.0.0 Safari/537.36 Edg/120.0.0.0" version="22.1.16" etag="UBb5jnI1y5KMA1x3hIfk" type="github">
  <diagram name="Trang-1" id="3MHq3e8uxHSeCojH_CD0">
    <mxGraphModel>
      <root>
        <mxCell id="0" />
        <mxCell id="1" parent="0" />
      </root>
    </mxGraphModel>
  </diagram>
</mxfile>
